<svg xmlns="http://www.w3.org/2000/svg" viewBox="0 0 64 64">
  <rect width="64" height="64" rx="14" fill="#18332d"/>
  <path d="M34 17c2-6 7-9 13-8-1 6-6 10-13 10" fill="#a8c96a"/>
  <path d="M32 22c-10-7-21 0-21 12 0 12 9 22 21 22s21-10 21-22c0-12-11-19-21-12Z" fill="#e5ae2b"/>
  <path d="M32 22c0-5 2-9 5-12" fill="none" stroke="#f7f4ea" stroke-linecap="round" stroke-width="4"/>
  <path d="m20 42 7-7 6 5 11-12" fill="none" stroke="#18332d" stroke-linecap="round" stroke-linejoin="round" stroke-width="4"/>
  <path d="M39 28h5v5" fill="none" stroke="#18332d" stroke-linecap="round" stroke-linejoin="round" stroke-width="4"/>
</svg>
